<?xml version="1.0" encoding="UTF-8"?>
<!DOCTYPE svg PUBLIC "-//W3C//DTD SVG 1.1//EN" "http://www.w3.org/Graphics/SVG/1.1/DTD/svg11.dtd">
<svg version="1.1" xmlns="http://www.w3.org/2000/svg" xmlns:xlink="http://www.w3.org/1999/xlink" x="0px" y="0px" width="944" height="704" viewBox="0, 0, 944, 704">
  <g id="Tempo">
    <path d="M187.5,404 C152.154,404 123.5,375.346 123.5,340 C123.5,304.654 152.154,276 187.5,276 C222.846,276 251.5,304.654 251.5,340 C251.5,375.346 222.846,404 187.5,404 z" fill-opacity="0" stroke="#00BAFF" stroke-width="5"/>
    <path d="M283.996,251.5 C266.323,251.5 251.996,237.173 251.996,219.5 C251.996,201.827 266.323,187.5 283.996,187.5 C301.669,187.5 315.996,201.827 315.996,219.5 C315.996,237.173 301.669,251.5 283.996,251.5 z" fill-opacity="0" stroke="#00BAFF" stroke-width="2"/>
    <path d="M365.896,251.5 C348.223,251.5 333.896,237.173 333.896,219.5 C333.896,201.827 348.223,187.5 365.896,187.5 C383.569,187.5 397.896,201.827 397.896,219.5 C397.896,237.173 383.569,251.5 365.896,251.5 z" fill-opacity="0" stroke="#00BAFF" stroke-width="2"/>
    <path d="M447.796,251.5 C430.123,251.5 415.796,237.173 415.796,219.5 C415.796,201.827 430.123,187.5 447.796,187.5 C465.469,187.5 479.796,201.827 479.796,219.5 C479.796,237.173 465.469,251.5 447.796,251.5 z" fill-opacity="0" stroke="#00BAFF" stroke-width="2"/>
    <path d="M529.696,251.5 C512.023,251.5 497.696,237.173 497.696,219.5 C497.696,201.827 512.023,187.5 529.696,187.5 C547.369,187.5 561.696,201.827 561.696,219.5 C561.696,237.173 547.369,251.5 529.696,251.5 z" fill-opacity="0" stroke="#00BAFF" stroke-width="2"/>
    <path d="M611.596,251.5 C593.923,251.5 579.596,237.173 579.596,219.5 C579.596,201.827 593.923,187.5 611.596,187.5 C629.269,187.5 643.596,201.827 643.596,219.5 C643.596,237.173 629.269,251.5 611.596,251.5 z" fill-opacity="0" stroke="#00BAFF" stroke-width="2"/>
    <path d="M693.496,251.5 C675.823,251.5 661.496,237.173 661.496,219.5 C661.496,201.827 675.823,187.5 693.496,187.5 C711.169,187.5 725.496,201.827 725.496,219.5 C725.496,237.173 711.169,251.5 693.496,251.5 z" fill-opacity="0" stroke="#00BAFF" stroke-width="2"/>
    <path d="M789,276 C824.346,276 853,304.654 853,340 C853,375.346 824.346,404 789,404 C753.654,404 725,375.346 725,340 C725,304.654 753.654,276 789,276 z" fill-opacity="0" stroke="#FFA702" stroke-width="5"/>
    <path d="M693.496,426.5 C711.169,426.5 725.496,440.827 725.496,458.5 C725.496,476.173 711.169,490.5 693.496,490.5 C675.823,490.5 661.496,476.173 661.496,458.5 C661.496,440.827 675.823,426.5 693.496,426.5 z" fill-opacity="0" stroke="#FFA702" stroke-width="2"/>
    <path d="M611.596,426.5 C629.269,426.5 643.596,440.827 643.596,458.5 C643.596,476.173 629.269,490.5 611.596,490.5 C593.923,490.5 579.596,476.173 579.596,458.5 C579.596,440.827 593.923,426.5 611.596,426.5 z" fill-opacity="0" stroke="#FFA702" stroke-width="2"/>
    <path d="M529.696,426.5 C547.369,426.5 561.696,440.827 561.696,458.5 C561.696,476.173 547.369,490.5 529.696,490.5 C512.023,490.5 497.696,476.173 497.696,458.5 C497.696,440.827 512.023,426.5 529.696,426.5 z" fill-opacity="0" stroke="#FFA702" stroke-width="2"/>
    <path d="M447.796,426.5 C465.469,426.5 479.796,440.827 479.796,458.5 C479.796,476.173 465.469,490.5 447.796,490.5 C430.123,490.5 415.796,476.173 415.796,458.5 C415.796,440.827 430.123,426.5 447.796,426.5 z" fill-opacity="0" stroke="#FFA702" stroke-width="2"/>
    <path d="M365.896,426.5 C383.569,426.5 397.896,440.827 397.896,458.5 C397.896,476.173 383.569,490.5 365.896,490.5 C348.223,490.5 333.896,476.173 333.896,458.5 C333.896,440.827 348.223,426.5 365.896,426.5 z" fill-opacity="0" stroke="#FFA702" stroke-width="2"/>
    <path d="M283.996,426.5 C301.669,426.5 315.996,440.827 315.996,458.5 C315.996,476.173 301.669,490.5 283.996,490.5 C266.323,490.5 251.996,476.173 251.996,458.5 C251.996,440.827 266.323,426.5 283.996,426.5 z" fill-opacity="0" stroke="#FFA702" stroke-width="2"/>
    <text transform="matrix(1, 0, 0, 1, 488.246, 556.921)">
      <tspan x="-91.711" y="10.469" font-family="ArialMT" font-size="50" fill="#FFA702">Player 1</tspan>
    </text>
    <text transform="matrix(-1, 0.015, -0.015, -1, 488.246, 133.509)">
      <tspan x="-91.711" y="14.483" font-family="ArialMT" font-size="50" fill="#00BAFF">Player 2</tspan>
    </text>
  </g>
  <defs/>
</svg>
